<svg width="90" height="90" viewBox="0 0 90 90" fill="none" xmlns="http://www.w3.org/2000/svg">
<circle cx="51.0469" cy="87.7156" r="2.02813" fill="#FFD138"/>
<circle cx="51.0469" cy="39.0406" r="2.02813" fill="#FFD138"/>
<circle cx="2.37188" cy="87.7156" r="2.02813" fill="#FFD138"/>
<circle cx="2.37188" cy="39.0406" r="2.02813" fill="#FFD138"/>
<circle cx="51.0469" cy="63.3781" r="2.02813" fill="#FFD138"/>
<circle cx="51.0469" cy="14.7031" r="2.02813" fill="#FFD138"/>
<circle cx="2.37188" cy="63.3781" r="2.02813" fill="#FFD138"/>
<circle cx="2.37188" cy="14.7031" r="2.02813" fill="#FFD138"/>
<circle cx="51.0469" cy="51.2093" r="2.02813" fill="#FFD138"/>
<circle cx="51.0469" cy="2.53435" r="2.02813" fill="#FFD138"/>
<circle cx="2.37188" cy="51.2093" r="2.02813" fill="#FFD138"/>
<circle cx="2.37188" cy="2.53435" r="2.02813" fill="#FFD138"/>
<circle cx="51.0469" cy="75.5469" r="2.02813" fill="#FFD138"/>
<circle cx="51.0469" cy="26.8719" r="2.02813" fill="#FFD138"/>
<circle cx="2.37188" cy="75.5469" r="2.02813" fill="#FFD138"/>
<circle cx="2.37188" cy="26.8719" r="2.02813" fill="#FFD138"/>
<circle cx="63.2156" cy="87.7156" r="2.02813" fill="#FFD138"/>
<circle cx="63.2156" cy="39.0406" r="2.02813" fill="#FFD138"/>
<circle cx="14.5406" cy="87.7156" r="2.02813" fill="#FFD138"/>
<circle cx="14.5406" cy="39.0406" r="2.02813" fill="#FFD138"/>
<circle cx="63.2156" cy="63.3781" r="2.02813" fill="#FFD138"/>
<circle cx="63.2156" cy="14.7031" r="2.02813" fill="#FFD138"/>
<circle cx="14.5406" cy="63.3781" r="2.02813" fill="#FFD138"/>
<circle cx="14.5406" cy="14.7031" r="2.02813" fill="#FFD138"/>
<circle cx="63.2156" cy="51.2093" r="2.02813" fill="#FFD138"/>
<circle cx="63.2156" cy="2.53435" r="2.02813" fill="#FFD138"/>
<circle cx="14.5406" cy="51.2093" r="2.02813" fill="#FFD138"/>
<circle cx="14.5406" cy="2.53435" r="2.02813" fill="#FFD138"/>
<circle cx="63.2156" cy="75.5469" r="2.02813" fill="#FFD138"/>
<circle cx="63.2156" cy="26.8719" r="2.02813" fill="#FFD138"/>
<circle cx="14.5406" cy="75.5469" r="2.02813" fill="#FFD138"/>
<circle cx="14.5406" cy="26.8719" r="2.02813" fill="#FFD138"/>
<circle cx="75.3844" cy="87.7156" r="2.02813" fill="#FFD138"/>
<circle cx="75.3844" cy="39.0406" r="2.02813" fill="#FFD138"/>
<circle cx="26.7094" cy="87.7156" r="2.02813" fill="#FFD138"/>
<circle cx="26.7094" cy="39.0406" r="2.02813" fill="#FFD138"/>
<circle cx="75.3844" cy="63.3781" r="2.02813" fill="#FFD138"/>
<circle cx="75.3844" cy="14.7031" r="2.02813" fill="#FFD138"/>
<circle cx="26.7094" cy="63.3781" r="2.02813" fill="#FFD138"/>
<circle cx="26.7094" cy="14.7031" r="2.02813" fill="#FFD138"/>
<circle cx="75.3844" cy="51.2093" r="2.02813" fill="#FFD138"/>
<circle cx="75.3844" cy="2.53435" r="2.02813" fill="#FFD138"/>
<circle cx="26.7094" cy="51.2093" r="2.02813" fill="#FFD138"/>
<circle cx="26.7094" cy="2.53435" r="2.02813" fill="#FFD138"/>
<circle cx="75.3844" cy="75.5469" r="2.02813" fill="#FFD138"/>
<circle cx="75.3844" cy="26.8719" r="2.02813" fill="#FFD138"/>
<circle cx="26.7094" cy="75.5469" r="2.02813" fill="#FFD138"/>
<circle cx="26.7094" cy="26.8719" r="2.02813" fill="#FFD138"/>
<circle cx="87.5531" cy="87.7156" r="2.02813" fill="#FFD138"/>
<circle cx="87.5531" cy="39.0406" r="2.02813" fill="#FFD138"/>
<circle cx="38.8782" cy="87.7156" r="2.02813" fill="#FFD138"/>
<circle cx="38.8782" cy="39.0406" r="2.02813" fill="#FFD138"/>
<circle cx="87.5531" cy="63.3781" r="2.02813" fill="#FFD138"/>
<circle cx="87.5531" cy="14.7031" r="2.02813" fill="#FFD138"/>
<circle cx="38.8782" cy="63.3781" r="2.02813" fill="#FFD138"/>
<circle cx="38.8782" cy="14.7031" r="2.02813" fill="#FFD138"/>
<circle cx="87.5531" cy="51.2093" r="2.02813" fill="#FFD138"/>
<circle cx="87.5531" cy="2.53435" r="2.02813" fill="#FFD138"/>
<circle cx="38.8782" cy="51.2093" r="2.02813" fill="#FFD138"/>
<circle cx="38.8782" cy="2.53435" r="2.02813" fill="#FFD138"/>
<circle cx="87.5531" cy="75.5469" r="2.02813" fill="#FFD138"/>
<circle cx="87.5531" cy="26.8719" r="2.02813" fill="#FFD138"/>
<circle cx="38.8782" cy="75.5469" r="2.02813" fill="#FFD138"/>
<circle cx="38.8782" cy="26.8719" r="2.02813" fill="#FFD138"/>
</svg>
