<svg width="22" height="12" viewBox="0 0 22 12" fill="none" xmlns="http://www.w3.org/2000/svg">
<path d="M0.316429 5.90587C0.316429 4.75164 0.491312 3.6732 0.841078 2.6682C1.17772 1.69684 1.6978 0.799168 2.37305 0.0239754H4.08224C3.44264 0.857021 2.94979 1.79304 2.62488 2.79179C1.97052 4.80557 1.97338 6.97525 2.63304 8.9873C2.97115 9.9783 3.44916 10.8784 4.06708 11.6828H2.37655C1.69846 10.9295 1.17762 10.0484 0.844575 9.09107C0.488763 8.06717 0.311305 6.9898 0.319927 5.90587" fill="#1F00BB"/>
<path d="M8.47763 10.5166C8.47763 10.8259 8.3548 11.1224 8.13615 11.341C7.91751 11.5597 7.62096 11.6825 7.31175 11.6825C7.00254 11.6825 6.70599 11.5597 6.48734 11.341C6.2687 11.1224 6.14586 10.8259 6.14586 10.5166C6.14586 10.2074 6.2687 9.91088 6.48734 9.69224C6.70599 9.47359 7.00254 9.35076 7.31175 9.35076C7.62096 9.35076 7.91751 9.47359 8.13615 9.69224C8.3548 9.91088 8.47763 10.2074 8.47763 10.5166Z" fill="#1F00BB"/>
<path d="M13.4326 0.0388351L13.1528 2.55248L15.7026 1.84129L15.9276 3.55515L13.6052 3.71837L15.129 5.74701L13.5784 6.57479L12.5128 4.43772L11.58 6.56197L9.97112 5.74818L11.4821 3.71954L9.17366 3.54232L9.44181 1.83547L11.9368 2.54665L11.657 0.030674H13.4455" fill="#1F00BB"/>
<path d="M21.3024 5.90557C21.3024 7.05047 21.1252 8.11609 20.7696 9.10476C20.4378 10.0567 19.9198 10.933 19.2457 11.6825H17.5517C18.172 10.869 18.6544 9.95918 18.9799 8.98934C19.318 7.9925 19.4859 6.9607 19.4859 5.88808C19.4859 4.82712 19.3227 3.79298 18.9939 2.78682C18.6699 1.78815 18.1779 0.852102 17.5389 0.0190125H19.2469C19.9263 0.796346 20.4464 1.6995 20.7777 2.67723C21.1275 3.67989 21.3024 4.75484 21.3024 5.89974" fill="#1F00BB"/>
</svg>
